<?xml version="1.0" encoding="UTF-8"?>
<svg version="1.1" xmlns="http://www.w3.org/2000/svg" width="223" height="97">
<path d="M0 0 C0.64582031 0.33902344 1.29164063 0.67804687 1.95703125 1.02734375 C7.38979381 4.35328336 10.18301604 9.41835996 13 15 C13.37511719 15.71027344 13.75023437 16.42054687 14.13671875 17.15234375 C16.9909821 26.56753824 16.68861225 39.97128409 12.5625 48.875 C7.8656115 56.55175407 1.52207487 62.09886813 -7 65 C1.01170891 68.37563866 5.67598806 69.77467065 14 67 C12.70989008 69.87793751 11.42638194 71.96183917 9 74 C1.08760953 76.63746349 -6.33714294 75.24770954 -13.7421875 71.90234375 C-16.96358966 70.61489756 -19.58879295 70.51268471 -23 71 C-24.81476003 72.39585785 -24.81476003 72.39585785 -26 74 C-26.66 74 -27.32 74 -28 74 C-26.47291037 70.56404834 -24.40072955 67.88087546 -22 65 C-23.155 64.938125 -24.31 64.87625 -25.5 64.8125 C-32.72897067 63.90408068 -38.3430952 59.41207855 -43 54 C-49.9046266 44.50613842 -51.15834712 34.52555381 -50 23 C-47.99217426 13.64535737 -43.38395088 6.1452417 -35.5625 0.625 C-24.60285879 -6.05239729 -11.24807809 -6.11879293 0 0 Z M-27.703125 1.4453125 C-37.4553769 12.03487895 -37.68791838 24.96547861 -37.17919922 38.58447266 C-36.45600899 48.33276165 -32.02308306 56.65571194 -24.6875 63 C-19.25539758 65.02124741 -14.67022214 64.65110354 -9.3125 62.5625 C-2.37220775 57.94100609 0.84681912 50.33306583 2.52734375 42.43359375 C4.33983541 29.26681552 3.97299258 15.63774267 -3.9375 4.375 C-7.12052099 0.5856893 -10.06997937 -1.39954914 -14.8125 -2.875 C-19.83886648 -3.07211241 -23.83268581 -1.83923452 -27.703125 1.4453125 Z " fill="#000000" transform="translate(208,22)"/>
<path d="M0 0 C6.95298768 -1.42324254 14.18567873 -2.43056205 21 0 C26.76537602 4.89840218 29.90539693 12.22439434 33.30126953 18.84619141 C36.12957215 24.09712749 39.51145332 28.95717336 42.875 33.875 C44.89625 36.88625 46.9175 39.8975 49 43 C49.33 29.47 49.66 15.94 50 2 C47.69 1.67 45.38 1.34 43 1 C43 0.67 43 0.34 43 0 C48.28 0 53.56 0 59 0 C59 0.33 59 0.66 59 1 C57.02 1.66 55.04 2.32 53 3 C52.67 24.45 52.34 45.9 52 68 C48.59429797 66.86476599 48.25276559 66.30232576 46.37133789 63.40844727 C45.86973648 62.64577042 45.36813507 61.88309357 44.85133362 61.0973053 C44.31387009 60.26210861 43.77640656 59.42691193 43.22265625 58.56640625 C42.65606796 57.70047348 42.08947968 56.83454071 41.50572205 55.94236755 C39.6835911 53.15402813 37.87280158 50.35853067 36.0625 47.5625 C34.28184468 44.82885216 32.49887646 42.0967235 30.71568298 39.36473083 C29.60814733 37.66607514 28.50243551 35.96622783 27.39918518 34.26478577 C21.67895378 25.45445872 15.82869421 16.74304132 10 8 C10 26.81 10 45.62 10 65 C11.98 65.66 13.96 66.32 16 67 C16 67.33 16 67.66 16 68 C10.72 68 5.44 68 0 68 C2 67 4 66 6 65 C6 44.54 6 24.08 6 3 C4.02 2.34 2.04 1.68 0 1 C0 0.67 0 0.34 0 0 Z " fill="#000000" transform="translate(63,19)"/>
<path d="M0 0 C1.15242188 0.01804688 2.30484375 0.03609375 3.4921875 0.0546875 C4.36101562 0.07789063 5.22984375 0.10109375 6.125 0.125 C3.19460323 1.76119408 0.74930394 2.42702652 -2.5625 2.875 C-10.25960586 4.36000864 -15.75506259 8.08973212 -20.25 14.5 C-28.6093947 28.35535034 -28.21920009 43.64425526 -28.25585938 59.31762695 C-28.26543347 61.75782421 -28.29922907 64.19679911 -28.3359375 66.63671875 C-28.33089203 67.3702507 -28.32584656 68.10378265 -28.32064819 68.85954285 C-28.4228523 74.28951427 -29.79108695 78.61409176 -32.875 83.125 C-40.12600481 88.89620791 -46.92489182 88.65091448 -55.875 88.125 C-62.27326004 87.05581707 -66.77011721 85.38438107 -70.875 80.125 C-72.79797027 76.9439694 -73.13684352 74.53537221 -73.17797852 70.83740234 C-73.19462051 69.78306 -73.21126251 68.72871765 -73.22840881 67.64242554 C-73.23682297 66.51003448 -73.24523712 65.37764343 -73.25390625 64.2109375 C-73.27090073 63.04495026 -73.2878952 61.87896301 -73.30540466 60.67764282 C-73.35855502 56.95181693 -73.39884753 53.22600233 -73.4375 49.5 C-73.48139327 45.76691302 -73.52805673 42.03391343 -73.58030701 38.30093384 C-73.61232101 35.97724966 -73.63919317 33.65348807 -73.66053772 31.3296814 C-73.67402756 30.28164337 -73.6875174 29.23360535 -73.70141602 28.15380859 C-73.71092789 27.22877533 -73.72043976 26.30374207 -73.73023987 25.35067749 C-73.73294549 23.08559323 -73.73294549 23.08559323 -74.875 21.125 C-77.40233235 20.46944881 -77.40233235 20.46944881 -79.875 20.125 C-79.875 19.795 -79.875 19.465 -79.875 19.125 C-71.295 19.125 -62.715 19.125 -53.875 19.125 C-53.875 19.455 -53.875 19.785 -53.875 20.125 C-55.855 20.785 -57.835 21.445 -59.875 22.125 C-59.95122759 29.54477336 -60.00367461 36.96444525 -60.03979492 44.38452148 C-60.05485705 46.90734633 -60.07531077 49.4301451 -60.10131836 51.95288086 C-60.13781383 55.58453824 -60.1547526 59.21584858 -60.16796875 62.84765625 C-60.18345261 63.97083755 -60.19893646 65.09401886 -60.21488953 66.25123596 C-60.21618866 72.33186162 -59.8810501 76.78573248 -56.875 82.125 C-53.67556809 85.22444967 -50.66225439 85.35593903 -46.375 85.5 C-42.06215754 85.36106279 -39.17373854 85.12385322 -35.875 82.125 C-30.59159789 75.37398619 -30.72879243 69.36411569 -30.6640625 61.14453125 C-30.63598383 59.15559087 -30.6073193 57.16665869 -30.578125 55.17773438 C-30.53699123 52.06209636 -30.50007732 48.94660977 -30.47363281 45.83081055 C-30.44581176 42.81006756 -30.39993513 39.79000617 -30.3515625 36.76953125 C-30.34830963 35.85250931 -30.34505676 34.93548737 -30.34170532 33.99067688 C-30.15472888 24.01301143 -27.88211694 15.46278987 -20.875 8.125 C-14.44138494 2.34630384 -8.78637686 -0.17931381 0 0 Z " fill="#000000" transform="translate(79.875,-0.125)"/>
<path d="M0 0 C8.58 0 17.16 0 26 0 C26 0.33 26 0.66 26 1 C24.02 1.66 22.04 2.32 20 3 C20 23.46 20 43.92 20 65 C21.98 65.66 23.96 66.32 26 67 C26 67.33 26 67.66 26 68 C17.42 68 8.84 68 0 68 C2 66.66666667 4 65.33333333 6 64 C6.43972621 61.29350099 6.43972621 61.29350099 6.34057617 58.08154297 C6.34023628 56.21983963 6.34023628 56.21983963 6.33988953 54.32052612 C6.32456848 52.96107628 6.30892047 51.60163009 6.29296875 50.2421875 C6.28737427 48.8549953 6.28310347 47.46779717 6.28010559 46.08059692 C6.26864497 42.42750719 6.23916786 38.77477466 6.20599365 35.12182617 C6.17531867 31.39506869 6.16160579 27.66825355 6.14648438 23.94140625 C6.11429886 16.62744123 6.06308839 9.31377064 6 2 C3.03 1.505 3.03 1.505 0 1 C0 0.67 0 0.34 0 0 Z " fill="#000000" transform="translate(127,19)"/>
</svg>
